<svg width="357" height="378" viewBox="0 0 357 378" fill="none" xmlns="http://www.w3.org/2000/svg">
<path d="M326 156C326 228.073 248.073 308.5 176 308.5C103.927 308.5 83 273.073 83 201C83 128.927 120.927 65 193 65C265.073 65 326 83.9268 326 156Z" fill="#228757" fill-opacity="0.29"/>
<path d="M286.426 214.859C244.709 273.632 134.61 294.111 75.8375 252.394C17.065 210.676 20.5058 169.675 62.2231 110.902C103.94 52.1296 171.87 21.9528 230.643 63.67C289.415 105.387 328.143 156.087 286.426 214.859Z" fill="#3DA775" fill-opacity="0.5"/>
<path d="M297.005 185.5C293.563 257.491 211.885 334.105 139.894 330.663C67.9028 327.222 48.6915 290.836 52.1331 218.845C55.5747 146.854 96.5109 84.8111 168.502 88.2527C240.493 91.6943 300.446 113.509 297.005 185.5Z" fill="#3D81A7" fill-opacity="0.53"/>
<path d="M278.794 297.816C217.282 335.378 108.029 310.785 70.4674 249.273C32.906 187.762 52.2354 151.438 113.747 113.877C175.259 76.3158 249.584 75.3691 287.145 136.881C324.706 198.392 340.305 260.255 278.794 297.816Z" fill="#43735C" fill-opacity="0.65"/>
</svg>
